# xmcd
#
# Track frame offsets:
#	150
#	18235
#	37310
#	58832
#	73332
#	92972
#	110707
#	126557
#	141885
#	162417
#	179662
#	198075
#
# Disc length: 2882 seconds
#
# Revision: 0
# Processed by: cddbd v1.4PL0 Copyright (c) Steve Scherf et al.
# Submitted via: EasyCDDAExtractor 4.6.0.1
#
DISCID=c10b400c
DTITLE=Paula Hunter
DYEAR=1900
DGENRE=Country
TTITLE0=Mas, Quem Diria
TTITLE1=Até o Amanhecer
TTITLE2=Sem a Sombra da Dor
TTITLE3=Eu Quero Ser Feliz
TTITLE4=Só com Você
TTITLE5=Desejo
TTITLE6=Eu Fecho os Olhos e Você Está Aqui
TTITLE7=Sem Olhar pra Trás
TTITLE8=Complexo de Táxi
TTITLE9=Vai ou Não Vai
TTITLE10=De Repente
TTITLE11=Escorregadia
EXTD=
EXTT0=
EXTT1=
EXTT2=
EXTT3=
EXTT4=
EXTT5=
EXTT6=
EXTT7=
EXTT8=
EXTT9=
EXTT10=
EXTT11=
PLAYORDER=
